<svg xmlns="http://www.w3.org/2000/svg" xmlns:xlink="http://www.w3.org/1999/xlink" width="324" height="642" viewBox="0 0 324 642">
  <defs>
    <clipPath id="clip-path">
      <rect id="Rectangle_7" data-name="Rectangle 7" width="324" height="642" transform="translate(1059.125 189.706)" fill="#fff" stroke="#707070" stroke-width="1"/>
    </clipPath>
    <clipPath id="clip-path-2">
      <rect id="Rectangle_2" data-name="Rectangle 2" width="647.788" height="642.494" fill="none"/>
    </clipPath>
  </defs>
  <g id="Groupe_de_masques_2" data-name="Groupe de masques 2" transform="translate(-1059.125 -189.706)" clip-path="url(#clip-path)">
    <g id="Groupe_7" data-name="Groupe 7" transform="translate(735.141 189.494)">
      <path id="Tracé_1" data-name="Tracé 1" d="M55.488,78.434l16.67,43.652h37.529L88.257,66.6Z" transform="translate(426.356 520.404)" fill="#11162b"/>
      <path id="Tracé_2" data-name="Tracé 2" d="M12.83,122.286H50.358L65.914,81.544l.069.035,1.2-3.153L34.345,66.576Z" transform="translate(98.579 520.208)" fill="#11162b"/>
      <g id="Groupe_2" data-name="Groupe 2" transform="translate(0 0)">
        <g id="Groupe_1" data-name="Groupe 1" clip-path="url(#clip-path-2)">
          <path id="Tracé_3" data-name="Tracé 3" d="M642.421,412.255c-15.7,13.347-35.8,11.05-60.282,43.9,10.043-2.156,13.489,2.543,21,3.255-9.14,10.945-37.792,63.567-106.485,79.051L347.271,141.034h63.424V105.842H366.384a61.927,61.927,0,0,0,18.393-44.123C384.777,27.688,357.47,0,323.9,0s-60.889,27.688-60.889,61.719A61.927,61.927,0,0,0,281.4,105.842H237.1v35.193h63.424L160.9,512.492l-9.886,25.946C82.4,522.918,53.787,470.349,44.656,459.413c7.5-.713,10.945-5.411,21-3.255-24.486-32.852-44.58-30.556-60.29-43.9-8.914,30.125-6.371,55.516,5.1,84.348.564-7.452,7.786-12.766,11.466-21.943,15.849,34.216,52.027,61.121,92.675,81.533,8.263,4.144,16.709,8.024,25.215,11.64,11.136,4.645,27.151,10.7,35.318,13.558.642.22,1.276.431,1.866.633.911.308,1.719.581,2.274.739l.017.053c.078.018.286.088.286.088s43.981,13.391,61.627,17.429c66.445,15.221,82.693,42.161,82.693,42.161s16.249-26.94,82.685-42.161a647.316,647.316,0,0,0,68.467-19.77l.035.106c8.445-3.018,22.472-8.349,32.7-12.59l-.052-.141c50.413-21.415,99.037-52.041,118.142-93.278,3.68,9.176,10.893,14.491,11.457,21.943,11.466-28.832,14.018-54.223,5.1-84.348M297.726,61.719A26.168,26.168,0,1,1,323.9,88.245a26.38,26.38,0,0,1-26.17-26.526M323.9,177.7l51.793,137.8H272.094Zm81.2,359.22c-54.189-15.5-62.756-76.8-63.841-103.959V369.364H306.536v63.593c-1.094,27.16-9.661,88.457-63.849,103.959a238.189,238.189,0,0,1-55.994,5.807l14.027-37.339.026-.053,58.12-154.645H388.917L447.072,505.4l-.365-.07,14.087,37.392a237.941,237.941,0,0,1-55.7-5.807" transform="translate(0.002 0.002)" fill="#11162b"/>
        </g>
      </g>
    </g>
  </g>
</svg>
