<?xml version="1.0" standalone="no"?>
<!DOCTYPE svg PUBLIC "-//W3C//DTD SVG 20010904//EN"
 "http://www.w3.org/TR/2001/REC-SVG-20010904/DTD/svg10.dtd">
<svg version="1.0" xmlns="http://www.w3.org/2000/svg"
 width="100.000000pt" height="100.000000pt" viewBox="0 0 100.000000 100.000000"
 preserveAspectRatio="xMidYMid meet">
<metadata>
Created by potrace 1.14, written by Peter Selinger 2001-2017
</metadata>
<g transform="translate(0.000000,100.000000) scale(0.100000,-0.100000)"
fill="#000000" stroke="none">
<path d="M454 847 c-23 -18 -26 -26 -21 -63 4 -37 2 -42 -14 -39 -14 3 -19 -2
-19 -20 0 -20 6 -24 33 -27 l34 -3 -82 -214 c-45 -118 -87 -217 -93 -219 -14
-4 -71 29 -97 58 -10 11 -13 20 -7 20 22 0 12 20 -20 40 -31 19 -33 19 -39 1
-9 -24 4 -90 15 -73 5 9 14 4 31 -16 30 -36 104 -76 180 -97 75 -20 135 -45
135 -56 0 -5 15 1 34 12 19 11 66 29 106 40 86 23 137 49 184 89 18 17 39 30
45 30 6 0 11 6 12 13 0 6 2 19 3 27 2 8 0 23 -3 32 -6 17 -8 16 -39 -2 -25
-15 -32 -25 -27 -40 5 -15 -4 -26 -36 -50 -24 -17 -50 -29 -58 -28 -9 2 -46
86 -96 218 l-82 215 34 3 c27 3 33 7 33 26 0 16 -5 23 -17 22 -14 -1 -17 7
-14 39 4 69 -61 105 -115 62z m71 -52 c0 -21 -31 -33 -46 -18 -5 5 -7 17 -3
27 9 24 49 17 49 -9z m8 -222 l26 -63 -58 0 -59 0 24 58 c13 31 24 64 24 72 0
22 14 1 43 -67z m41 -114 c11 -13 77 -201 72 -206 -12 -12 -87 18 -102 42 -9
14 -19 54 -22 90 -4 53 -8 65 -22 65 -14 0 -18 -12 -22 -65 -3 -36 -13 -76
-22 -90 -16 -24 -90 -54 -102 -42 -4 3 8 41 25 84 17 43 31 83 31 90 0 28 28
39 94 38 36 -1 68 -4 70 -6z"/>
<path d="M270 181 c-15 -30 -12 -51 8 -51 25 0 49 50 30 61 -20 13 -26 11 -38
-10z"/>
<path d="M692 191 c-19 -11 5 -61 30 -61 20 0 23 21 8 51 -12 21 -18 23 -38
10z"/>
</g>
</svg>
